<svg width="22" height="22" viewBox="0 0 22 22" fill="none" xmlns="http://www.w3.org/2000/svg">
<g clip-path="url(#clip0_159_33)">
<path d="M11.9166 11.9167C13.9417 11.9167 15.5833 13.5583 15.5833 15.5833V16.9583C15.5833 17.7177 14.9677 18.3333 14.2083 18.3333H3.20831C2.44892 18.3333 1.83331 17.7177 1.83331 16.9583V15.5833C1.83331 13.5583 3.47493 11.9167 5.49998 11.9167H11.9166ZM17.4166 11.9169C18.9355 11.9169 20.1666 13.1481 20.1666 14.6669V16.0419C20.1666 16.8013 19.551 17.4168 18.7916 17.4168H17.4166V15.5833C17.4166 14.0841 16.6969 12.7531 15.584 11.9169H17.4166ZM8.70831 2.75C10.9865 2.75 12.8333 4.59683 12.8333 6.875C12.8333 9.15317 10.9865 11 8.70831 11C6.43014 11 4.58331 9.15317 4.58331 6.875C4.58331 4.59683 6.43014 2.75 8.70831 2.75ZM16.5 5.5C18.0188 5.5 19.25 6.73122 19.25 8.25C19.25 9.76882 18.0188 11 16.5 11C14.9812 11 13.75 9.76882 13.75 8.25C13.75 6.73122 14.9812 5.5 16.5 5.5Z" fill="#8390AC"/>
</g>
<defs>
<clipPath id="clip0_159_33">
<rect width="22" height="22" fill="white"/>
</clipPath>
</defs>
</svg>
