<svg width="40" height="66" viewBox="0 0 40 66" fill="none" xmlns="http://www.w3.org/2000/svg">
<path d="M14.7552 65.9955C16.5663 65.9955 18.0352 64.5327 18.0352 62.721V55.7253L11.5119 63.2154C11.7505 64.7925 13.1116 65.9955 14.7552 65.9955ZM25.8044 63.4718C26.2278 65.2713 28.0355 66.3167 29.7485 65.9139C31.512 65.4995 32.6056 63.7336 32.1908 61.9696L28.0249 44.2552L22.7186 50.3479L25.8044 63.4718ZM38.4729 32.432L32.2305 25.1483L28.5577 15.8645C28.2279 15.031 27.6551 14.3159 26.9138 13.812C26.1725 13.3081 25.2968 13.0386 24.4005 13.0386H14.0497L7.18646 9.60455C8.47501 8.57832 12.9122 5.05248 13.0844 4.90746C12.6141 8.41912 15.4183 11.4595 18.9185 11.3266C21.8546 11.2154 24.2475 8.82247 24.3587 5.88638C24.4816 2.65676 21.8998 0 18.6978 0C16.7072 0 14.958 1.02725 13.9473 2.57967C13.8721 2.10777 13.6637 1.66716 13.3466 1.30969C12.451 0.296484 10.8986 0.20393 9.84012 1.04582L0.996898 8.08126C-0.529739 9.29582 -0.228614 11.5361 1.39341 12.3479L11.4748 17.3838V53.5023L18.0353 45.9693V36.5017H19.4623L20.9121 42.6666L26.2184 36.5732L25.9374 35.3783V22.9842L27.6988 27.4053C27.8017 27.6633 27.9465 27.9025 28.1273 28.1133L30.8348 31.273L30.8591 31.2453C32.0388 29.8908 34.141 29.7151 35.473 30.92C36.7635 32.0882 36.8863 34.0802 35.7383 35.3989L35.1009 36.1306C36.0314 36.7907 37.3073 36.7535 38.1991 35.9891C39.257 35.0822 39.3794 33.4896 38.473 32.4322L38.4729 32.432Z" fill="#00213D"/>
<path d="M6.25537 65.9954C6.70268 65.9954 7.24331 65.6776 7.56003 65.3141L34.5302 34.347C35.1113 33.6796 35.0413 32.6676 34.3742 32.087C33.7069 31.5059 32.6948 31.5754 32.1142 32.2426L6.46072 61.6982C5.21703 60.5445 2.88306 59.7052 1.91278 60.9797C1.04911 62.114 2.10163 63.9007 3.36903 64.8654C4.09864 65.4209 5.35857 65.9954 6.25537 65.9954Z" fill="#00213D"/>
</svg>
