<svg width="20" height="20" viewBox="0 0 20 20" fill="none" xmlns="http://www.w3.org/2000/svg">
<path d="M18.2898 7.96483C18.2365 7.79248 18.1358 7.64032 18.0002 7.5273C17.8646 7.41428 17.7001 7.34541 17.5273 7.32927L12.7168 6.87344L10.8146 2.22754C10.6743 1.88707 10.3549 1.66675 10 1.66675C9.64513 1.66675 9.32569 1.8871 9.18546 2.22839L7.28326 6.87348L2.47204 7.32927C2.29939 7.34577 2.13517 7.41479 1.99975 7.52777C1.86433 7.64075 1.76367 7.79271 1.71024 7.96483C1.6005 8.31701 1.70184 8.70327 1.96926 8.94676L5.60542 12.2743L4.53319 17.2029C4.45474 17.5652 4.58951 17.9399 4.87767 18.1572C5.03252 18.274 5.21374 18.3334 5.39646 18.3334C5.55402 18.3334 5.71027 18.2891 5.85058 18.2015L10 15.6136L14.148 18.2015C14.4515 18.3921 14.8341 18.3747 15.1216 18.1572C15.2624 18.0509 15.3701 17.9037 15.4313 17.7341C15.4926 17.5644 15.5047 17.3797 15.4661 17.2029L14.3939 12.2743L18.03 8.94744C18.1608 8.82823 18.2552 8.67155 18.3014 8.49685C18.3476 8.32216 18.3435 8.13715 18.2898 7.96483Z" fill="#FFC107"/>
</svg>
