<svg width="22" height="22" viewBox="0 0 22 22" fill="none" xmlns="http://www.w3.org/2000/svg">
<path d="M16.2564 11.1073H18.6834C18.8217 11.1073 18.9544 11.1637 19.0522 11.264C19.15 11.3642 19.205 11.5002 19.205 11.6421V21.3916C19.205 21.4619 19.1915 21.5314 19.1652 21.5962C19.139 21.6611 19.1005 21.72 19.0521 21.7697C19.0036 21.8193 18.9461 21.8587 18.8828 21.8855C18.8195 21.9124 18.7516 21.9262 18.6831 21.9261H16.2568C16.1883 21.9262 16.1204 21.9123 16.0571 21.8855C15.9938 21.8586 15.9363 21.8192 15.8878 21.7696C15.8394 21.7199 15.8009 21.661 15.7747 21.5961C15.7485 21.5312 15.735 21.4616 15.735 21.3914V11.6418C15.735 11.5716 15.7485 11.5021 15.7747 11.4372C15.801 11.3724 15.8394 11.3134 15.8879 11.2638C15.9364 11.2142 15.9939 11.1748 16.0572 11.148C16.1205 11.1211 16.1883 11.1073 16.2568 11.1073H16.2564ZM3.24457 16.0176H5.67134C5.80965 16.0176 5.94227 16.074 6.04005 16.1743C6.13783 16.2745 6.19276 16.4105 6.19276 16.5523V21.4653C6.19276 21.6071 6.13783 21.743 6.04005 21.8433C5.94227 21.9436 5.80965 21.9999 5.67134 22H3.24434C3.10599 22 2.97331 21.9437 2.87549 21.8434C2.77766 21.7431 2.7227 21.6071 2.7227 21.4653V16.5523C2.72267 16.482 2.73615 16.4124 2.76237 16.3475C2.78858 16.2826 2.82702 16.2236 2.87549 16.1739C2.92395 16.1243 2.98149 16.0849 3.04482 16.058C3.10815 16.0311 3.17603 16.0175 3.24457 16.0176ZM9.75069 6.1427H12.177C12.2455 6.14267 12.3134 6.15647 12.3767 6.18331C12.44 6.21016 12.4975 6.24952 12.5459 6.29915C12.5944 6.34878 12.6328 6.40771 12.6591 6.47258C12.6853 6.53744 12.6989 6.60697 12.6989 6.67719V21.3914C12.6989 21.4616 12.6854 21.5312 12.6592 21.5961C12.6329 21.661 12.5945 21.7199 12.546 21.7696C12.4976 21.8192 12.44 21.8586 12.3767 21.8855C12.3134 21.9123 12.2455 21.9262 12.177 21.9261H9.75069C9.68217 21.9262 9.61431 21.9123 9.551 21.8855C9.48769 21.8586 9.43015 21.8192 9.38169 21.7696C9.33323 21.7199 9.29479 21.661 9.26856 21.5961C9.24233 21.5312 9.22883 21.4616 9.22883 21.3914V6.67719C9.22886 6.60697 9.24238 6.53744 9.26862 6.47258C9.29486 6.40771 9.33331 6.34878 9.38177 6.29915C9.43023 6.24952 9.48775 6.21016 9.55105 6.18331C9.61435 6.15647 9.68219 6.14267 9.75069 6.1427ZM5.18088 11.7354L4.45795 10.1051L3.66273 11.6613L2 11.8836L3.22898 13.1434L2.86751 14.8476L4.38566 14.1065L5.90381 14.9217L5.61464 13.2173L6.91591 11.9575L5.18088 11.7354ZM11.7591 1.55623L10.9639 0L10.2409 1.55623L8.5059 1.77855L9.73488 3.03835L9.37341 4.74256L10.9639 3.92739L12.4097 4.81666L12.1928 3.03812L13.4218 1.85242L11.7591 1.55623ZM18.265 6.66121L17.542 5.10498L16.7468 6.66121L15.0841 6.88352L16.3131 8.14333C16.3131 8.21743 16.0962 9.40313 16.0239 9.84777C16.8914 9.40313 17.542 9.0326 17.542 9.0326C17.6143 9.10671 18.6987 9.69955 19.0602 9.84777C19.0602 9.77366 18.771 7.99512 18.771 8.14333L20 6.95763L18.265 6.66121Z" fill="#8390AC"/>
</svg>
