<svg width="21" height="22" viewBox="0 0 21 22" fill="none" xmlns="http://www.w3.org/2000/svg">
<g clip-path="url(#clip0_456_168)">
<path d="M9.05273 11.8418V20.0349C9.05273 20.6837 9.55779 21.2098 10.1806 21.2098C10.8033 21.2098 11.3084 20.6837 11.3084 20.0349V11.8418H9.05273Z" fill="#F5F7F9"/>
<path d="M10.1807 11.9645C13.3525 11.9645 15.9237 9.28616 15.9237 5.98225C15.9237 2.67835 13.3525 0 10.1807 0C7.00896 0 4.43774 2.67835 4.43774 5.98225C4.43774 9.28616 7.00896 11.9645 10.1807 11.9645Z" fill="#DD4247"/>
<path d="M4.43774 5.98225C4.43774 7.89031 5.29515 9.58958 6.63098 10.6853C6.89103 10.7148 7.15242 10.7298 7.41402 10.73C11.3622 10.73 14.5628 7.3961 14.5628 3.28338C14.5628 2.84096 14.5258 2.40723 14.4546 1.98594C13.4027 0.7672 11.878 0 10.1807 0C7.00877 0 4.43774 2.67857 4.43774 5.98225Z" fill="#E55353"/>
<path d="M8.32583 5.16868C7.59807 5.16868 7.0083 4.55434 7.0083 3.79625C7.0083 3.03817 7.59807 2.42383 8.32583 2.42383C9.05359 2.42383 9.64336 3.03817 9.64336 3.79625C9.64336 4.55434 9.05359 5.16868 8.32583 5.16868Z" fill="#F5F7F9"/>
</g>
<defs>
<clipPath id="clip0_456_168">
<rect width="20.3615" height="21.2098" fill="white"/>
</clipPath>
</defs>
</svg>
