<svg width="22" height="22" viewBox="0 0 22 22" fill="none" xmlns="http://www.w3.org/2000/svg">
<path d="M10.9999 1.05811C8.39511 1.05811 6.27747 3.17575 6.27747 5.78055C6.27747 8.33564 8.27581 10.4036 10.8806 10.4931C10.9601 10.4831 11.0397 10.4831 11.0993 10.4931C11.1192 10.4931 11.1292 10.4931 11.149 10.4931C11.159 10.4931 11.159 10.4931 11.1689 10.4931C13.7141 10.4036 15.7124 8.33564 15.7224 5.78055C15.7224 3.17575 13.6047 1.05811 10.9999 1.05811Z" fill="#8390AC"/>
<path d="M16.0514 13.1374C13.2775 11.2882 8.75398 11.2882 5.96028 13.1374C4.69765 13.9825 4.00171 15.1258 4.00171 16.3487C4.00171 17.5715 4.69765 18.7049 5.95034 19.54C7.34222 20.4746 9.1715 20.9419 11.0008 20.9419C12.8302 20.9419 14.6595 20.4746 16.0514 19.54C17.304 18.695 18 17.5616 18 16.3288C17.99 15.1059 17.304 13.9725 16.0514 13.1374Z" fill="#8390AC"/>
</svg>
